<?xml version="1.0" standalone="no"?>
<!DOCTYPE svg PUBLIC "-//W3C//DTD SVG 20010904//EN"
 "http://www.w3.org/TR/2001/REC-SVG-20010904/DTD/svg10.dtd">
<svg version="1.0" xmlns="http://www.w3.org/2000/svg"
 width="1080.000000pt" height="467.000000pt" viewBox="0 0 1080.000000 467.000000"
 preserveAspectRatio="xMidYMid meet">

<g transform="translate(0.000000,467.000000) scale(0.100000,-0.100000)"
fill="#000000" stroke="none">
<path d="M3680 4193 c0 -5 24 -7 52 -5 95 5 104 9 26 11 -43 0 -78 -2 -78 -6z"/>
<path d="M3625 4180 c-3 -6 1 -7 9 -4 18 7 21 14 7 14 -6 0 -13 -4 -16 -10z"/>
<path d="M3565 4170 c3 -5 0 -10 -7 -10 -21 -1 35 -29 59 -30 30 0 54 10 47
21 -3 5 -17 9 -32 8 l-27 -1 25 -8 c23 -7 23 -8 3 -9 -31 -1 -53 9 -53 25 0 8
-5 14 -11 14 -5 0 -7 -4 -4 -10z"/>
<path d="M3878 4173 c12 -2 30 -2 40 0 9 3 -1 5 -23 4 -22 0 -30 -2 -17 -4z"/>
<path d="M3458 4163 c7 -3 16 -2 19 1 4 3 -2 6 -13 5 -11 0 -14 -3 -6 -6z"/>
<path d="M3990 4160 c-8 -5 -10 -10 -5 -10 6 0 17 5 25 10 8 5 11 10 5 10 -5
0 -17 -5 -25 -10z"/>
<path d="M3475 4153 c-11 -3 -24 -10 -30 -15 -12 -13 35 0 50 13 5 5 7 8 5 8
-3 -1 -14 -3 -25 -6z"/>
<path d="M3950 4149 c0 -5 5 -7 10 -4 6 3 10 8 10 11 0 2 -4 4 -10 4 -5 0 -10
-5 -10 -11z"/>
<path d="M3370 4142 c0 -4 9 -8 19 -8 11 0 17 4 15 8 -3 4 -12 8 -20 8 -8 0
-14 -4 -14 -8z"/>
<path d="M3515 4140 c3 -5 10 -10 16 -10 5 0 9 5 9 10 0 6 -7 10 -16 10 -8 0
-12 -4 -9 -10z"/>
<path d="M3712 4138 c-8 -10 -5 -13 12 -13 13 0 23 6 23 13 0 6 -6 12 -12 12
-7 0 -17 -6 -23 -12z"/>
<path d="M4060 4142 c0 -6 -10 -13 -22 -15 -13 -2 4 -2 37 0 56 4 91 13 49 13
-10 0 -29 3 -41 6 -13 4 -23 2 -23 -4z"/>
<path d="M3976 4125 c4 -8 8 -15 10 -15 2 0 4 7 4 15 0 8 -4 15 -10 15 -5 0
-7 -7 -4 -15z"/>
<path d="M3452 4120 c-42 -10 -55 -22 -15 -14 23 5 32 2 37 -12 6 -15 9 -16
16 -4 6 9 5 17 -3 22 -8 5 -6 8 6 8 9 0 17 -4 17 -10 0 -14 27 -13 36 2 5 8 2
9 -9 5 -10 -3 -17 -2 -17 3 0 11 -21 11 -68 0z"/>
<path d="M3905 4120 c4 -6 11 -8 16 -5 14 9 11 15 -7 15 -8 0 -12 -5 -9 -10z"/>
<path d="M4225 4100 c2 -11 0 -20 -4 -20 -4 0 -8 -6 -8 -14 0 -8 8 -11 20 -8
13 3 18 1 13 -6 -3 -6 -2 -13 3 -16 5 -3 11 1 14 9 4 8 -2 16 -13 20 -12 4
-17 13 -15 25 2 11 0 22 -5 25 -5 3 -7 -4 -5 -15z"/>
<path d="M4260 4078 c0 -4 4 -8 9 -8 6 0 12 4 15 8 3 5 -1 9 -9 9 -8 0 -15 -4
-15 -9z"/>
<path d="M4290 4054 c0 -14 3 -14 15 -4 8 7 15 14 15 16 0 2 -7 4 -15 4 -8 0
-15 -7 -15 -16z"/>
<path d="M3630 4050 c8 -5 11 -10 5 -10 -5 0 -3 -5 5 -10 25 -16 31 -11 13 10
-10 11 -22 20 -28 20 -5 0 -3 -5 5 -10z"/>
<path d="M3705 4050 c-3 -5 1 -10 9 -10 8 0 18 5 21 10 3 6 -1 10 -9 10 -8 0
-18 -4 -21 -10z"/>
<path d="M3820 4036 c0 -2 7 -7 16 -10 8 -3 12 -2 9 4 -6 10 -25 14 -25 6z"/>
<path d="M3686 4021 c-6 -10 24 -25 32 -16 3 3 0 5 -7 5 -7 0 -9 5 -6 10 3 6
2 10 -4 10 -5 0 -12 -4 -15 -9z"/>
<path d="M4356 3996 c2 -41 2 -40 19 -26 8 6 18 9 23 6 10 -6 9 30 -2 41 -4 5
-6 2 -4 -6 2 -9 -6 -16 -17 -18 -11 -1 -14 0 -7 3 16 7 15 21 -1 27 -9 3 -12
-5 -11 -27z"/>
<path d="M3780 3991 c0 -7 -4 -10 -9 -6 -5 3 -12 1 -15 -4 -4 -5 -2 -12 3 -15
11 -7 36 22 27 31 -3 3 -6 1 -6 -6z"/>
<path d="M3800 3983 c0 -13 -6 -23 -12 -23 -7 0 -4 -6 7 -12 11 -6 30 -20 43
-31 12 -11 22 -16 22 -11 0 5 -15 20 -33 32 -24 18 -27 22 -9 17 17 -5 22 -2
22 11 0 10 -3 14 -7 11 -3 -4 -12 1 -19 11 -12 16 -13 15 -14 -5z"/>
<path d="M4427 3980 c9 -9 9 -19 2 -33 -9 -15 -7 -24 10 -40 12 -12 21 -16 21
-9 0 7 -6 12 -12 12 -10 0 -9 3 1 9 9 6 10 11 3 15 -6 4 -9 13 -6 20 3 7 -3
19 -13 26 -15 12 -16 12 -6 0z"/>
<path d="M4465 3920 c-3 -5 1 -13 10 -16 9 -4 14 -12 11 -19 -3 -8 1 -16 8
-18 10 -4 12 3 7 26 -7 32 -24 46 -36 27z"/>
<path d="M3040 3900 c-445 -37 -1047 -331 -1515 -739 l-70 -60 -330 6 -331 6
-81 -279 c-45 -153 -132 -452 -193 -664 -61 -212 -136 -472 -167 -578 -31
-106 -54 -195 -51 -197 8 -8 430 -7 438 2 4 4 36 107 70 228 35 121 66 226 70
233 6 11 57 13 271 10 363 -4 456 -1 535 17 172 40 292 142 374 318 31 66 130
400 151 505 13 71 7 174 -14 224 -29 67 -113 125 -213 146 -29 6 -149 14 -268
18 -130 4 -213 11 -209 17 3 5 46 36 97 69 511 336 1246 474 1751 326 195 -57
366 -188 438 -338 l36 -75 0 53 c1 93 -20 243 -46 326 -96 311 -354 459 -743
426z m-1529 -1147 c184 -6 184 -6 211 -34 18 -17 28 -38 28 -56 0 -43 -90
-341 -114 -376 -51 -75 -112 -84 -462 -70 l-191 8 78 265 c43 146 78 266 78
268 2 4 186 2 372 -5z"/>
<path d="M3900 3892 c0 -7 9 -20 19 -29 11 -9 17 -21 15 -27 -3 -7 8 -23 23
-36 15 -14 25 -21 21 -16 -4 5 0 15 10 22 16 12 15 13 -8 14 -23 1 -23 2 -5
10 14 6 15 9 5 9 -9 1 -22 -5 -29 -11 -10 -11 -11 -8 -6 15 6 21 4 27 -8 27
-9 0 -21 8 -26 18 -6 9 -11 12 -11 4z"/>
<path d="M4870 3869 c0 -4 12 -32 26 -64 75 -163 101 -376 69 -565 -65 -391
-324 -805 -786 -1255 -455 -443 -1142 -943 -1934 -1406 -96 -56 -174 -104
-172 -105 7 -8 453 168 687 271 1109 488 1821 1035 2173 1670 255 462 267 926
32 1318 -53 89 -94 149 -95 136z"/>
<path d="M4496 3839 c4 -8 30 -6 38 2 3 3 -5 5 -19 5 -13 0 -22 -3 -19 -7z"/>
<path d="M4490 3799 c0 -11 5 -17 10 -14 9 6 14 -7 11 -27 0 -4 6 -5 14 -2 21
8 19 17 -10 42 -25 22 -25 22 -25 1z"/>
<path d="M4560 3805 c0 -5 5 -17 10 -25 5 -8 10 -10 10 -5 0 6 -5 17 -10 25
-5 8 -10 11 -10 5z"/>
<path d="M4004 3781 c4 -6 2 -19 -6 -28 -9 -12 -9 -15 0 -9 7 4 12 2 12 -5 0
-7 8 -5 20 6 11 10 20 13 20 7 0 -6 -9 -17 -19 -24 -18 -13 -18 -14 -1 -35 18
-23 33 -21 23 3 -3 8 -9 11 -14 8 -15 -9 -10 8 8 28 13 15 14 21 4 31 -11 9
-14 9 -18 0 -3 -7 -9 -13 -14 -13 -4 0 -6 6 -3 14 3 8 0 17 -7 22 -8 4 -10 3
-5 -5z"/>
<path d="M4560 3745 c6 -7 7 -21 3 -30 -4 -13 -3 -16 5 -11 7 4 12 2 12 -4 0
-7 5 -6 14 2 12 11 12 17 2 32 -7 11 -20 20 -30 22 -13 2 -15 -1 -6 -11z"/>
<path d="M4598 3678 c-19 -19 -24 -38 -10 -38 7 0 35 52 29 55 -1 1 -10 -7
-19 -17z"/>
<path d="M4621 3654 c0 -11 3 -14 6 -6 3 7 2 16 -1 19 -3 4 -6 -2 -5 -13z"/>
<path d="M4064 3629 c-3 -6 -1 -16 4 -21 8 -8 11 -5 9 11 -1 24 -3 25 -13 10z"/>
<path d="M4102 3613 c-10 -10 -11 -18 -3 -26 5 -7 8 -22 5 -33 -3 -10 0 -30 5
-44 9 -21 10 -19 5 15 -6 38 -6 39 10 20 16 -19 16 -18 1 12 -17 36 -21 68 -5
43 5 -8 10 -10 10 -5 0 23 -15 33 -28 18z"/>
<path d="M4551 3564 c0 -11 3 -14 6 -6 3 7 2 16 -1 19 -3 4 -6 -2 -5 -13z"/>
<path d="M4646 3431 c2 -52 6 -96 8 -98 8 -8 4 150 -4 171 -4 12 -6 -21 -4
-73z"/>
<path d="M4110 3460 c0 -5 5 -10 10 -10 6 0 10 5 10 10 0 6 -4 10 -10 10 -5 0
-10 -4 -10 -10z"/>
<path d="M4121 3424 c0 -11 3 -14 6 -6 3 7 2 16 -1 19 -3 4 -6 -2 -5 -13z"/>
<path d="M4572 3400 c0 -19 2 -27 5 -17 2 9 2 25 0 35 -3 9 -5 1 -5 -18z"/>
<path d="M4156 3380 c18 -34 34 -39 34 -10 0 11 -7 20 -15 20 -8 0 -15 5 -15
10 0 6 -4 10 -9 10 -5 0 -3 -13 5 -30z"/>
<path d="M4132 3370 c0 -14 2 -19 5 -12 2 6 2 18 0 25 -3 6 -5 1 -5 -13z"/>
<path d="M4577 3339 c7 -7 15 -10 18 -7 3 3 -2 9 -12 12 -14 6 -15 5 -6 -5z"/>
<path d="M4156 3309 c-8 -42 0 -50 9 -9 4 17 5 34 2 36 -2 3 -7 -10 -11 -27z"/>
<path d="M4190 3318 c0 -17 3 -18 15 -8 8 6 20 8 26 4 7 -4 9 -3 6 3 -4 6 -16
13 -27 16 -15 4 -20 0 -20 -15z"/>
<path d="M4212 3290 c0 -14 2 -19 5 -12 2 6 2 18 0 25 -3 6 -5 1 -5 -13z"/>
<path d="M4175 3260 c3 -5 8 -10 11 -10 2 0 4 5 4 10 0 6 -5 10 -11 10 -5 0
-7 -4 -4 -10z"/>
<path d="M4173 3210 c3 -21 -1 -40 -10 -48 -8 -8 -11 -17 -8 -20 8 -9 34 31
35 53 0 11 -5 27 -11 35 -8 11 -9 7 -6 -20z"/>
<path d="M4621 3235 c1 -19 18 -51 18 -35 0 8 -4 22 -9 30 -5 8 -9 11 -9 5z"/>
<path d="M4560 3180 c0 -5 7 -10 15 -10 8 0 15 5 15 10 0 6 -7 10 -15 10 -8 0
-15 -4 -15 -10z"/>
<path d="M4621 3164 c0 -11 3 -14 6 -6 3 7 2 16 -1 19 -3 4 -6 -2 -5 -13z"/>
<path d="M4230 3143 c0 -15 -2 -16 -10 -3 -8 13 -10 13 -10 -1 0 -9 7 -19 15
-23 11 -4 15 1 15 19 0 14 -2 25 -5 25 -3 0 -5 -8 -5 -17z"/>
<path d="M4131 3104 c-1 -23 -4 -63 -8 -89 -5 -38 -3 -47 8 -43 7 2 18 19 23
36 5 18 13 32 17 32 5 0 9 8 9 18 0 14 -2 15 -10 2 -9 -13 -10 -13 -11 0 0 8
-7 -7 -14 -35 -14 -56 -18 -35 -6 36 4 25 4 54 0 65 -5 13 -8 7 -8 -22z"/>
<path d="M4556 3119 c5 -8 2 -11 -7 -7 -10 4 -15 -1 -15 -13 0 -23 1 -23 20
-3 15 14 17 13 26 -11 6 -15 7 -38 4 -52 l-7 -26 -12 23 c-11 20 -13 21 -19 5
-3 -10 -4 -20 -1 -23 3 -3 5 1 6 9 0 8 6 2 13 -14 12 -27 12 -27 30 30 27 91
28 93 19 93 -5 0 -10 -12 -11 -27 -2 -31 -12 -45 -12 -17 0 11 -9 25 -21 32
-16 10 -19 10 -13 1z"/>
<path d="M2645 2955 c-45 -66 -151 -223 -237 -350 -259 -384 -517 -768 -677
-1005 l-152 -225 123 -8 c68 -4 176 -6 242 -5 l118 3 96 148 95 147 147 0
c192 0 479 -11 478 -19 -3 -11 13 -235 19 -268 l5 -33 73 0 72 0 50 58 c27 31
93 114 146 185 77 100 97 134 97 160 0 46 -117 1317 -121 1321 -2 2 -114 6
-248 8 l-243 3 -83 -120z m186 -477 c0 -35 6 -161 12 -281 7 -121 10 -220 7
-221 -3 -1 -90 0 -193 2 -139 3 -187 7 -185 16 5 20 343 546 351 546 4 0 7
-28 8 -62z"/>
<path d="M4560 3071 c0 -6 4 -13 10 -16 6 -3 7 1 4 9 -7 18 -14 21 -14 7z"/>
<path d="M4181 3018 c-1 -10 -6 -18 -12 -18 -5 0 -7 -5 -3 -11 9 -15 28 16 20
34 -2 7 -5 4 -5 -5z"/>
<path d="M4188 2973 c-25 -29 -28 -40 -13 -40 8 0 15 9 15 19 0 12 4 16 12 12
6 -4 8 -3 4 4 -3 5 0 13 6 15 8 3 8 6 2 6 -6 1 -18 -7 -26 -16z"/>
<path d="M4524 2981 c3 -5 15 -11 26 -14 17 -4 19 -3 9 9 -12 15 -44 20 -35 5z"/>
<path d="M4106 2914 c-4 -20 -5 -38 -3 -40 3 -3 8 11 11 32 4 20 5 38 3 40 -3
3 -8 -11 -11 -32z"/>
<path d="M4130 2920 c0 -5 5 -10 10 -10 6 0 10 5 10 10 0 6 -4 10 -10 10 -5 0
-10 -4 -10 -10z"/>
<path d="M4466 2896 c3 -9 1 -16 -5 -16 -13 0 -15 -36 -3 -44 14 -9 30 8 37
39 l6 30 -15 -30 c-15 -29 -15 -29 -10 -4 3 15 1 30 -5 33 -7 4 -8 1 -5 -8z"/>
<path d="M4510 2899 c0 -5 5 -7 10 -4 6 3 10 8 10 11 0 2 -4 4 -10 4 -5 0 -10
-5 -10 -11z"/>
<path d="M4505 2859 c-11 -17 1 -21 15 -4 8 9 8 15 2 15 -6 0 -14 -5 -17 -11z"/>
<path d="M4086 2826 c-4 -17 -2 -33 5 -42 6 -8 8 -25 5 -40 -5 -17 -3 -23 4
-19 5 3 10 14 10 24 0 9 6 23 13 30 10 10 9 11 -4 6 -10 -4 -19 0 -23 11 -8
22 2 33 14 14 7 -11 9 -10 7 7 0 12 -4 20 -8 17 -4 -2 -9 1 -11 8 -3 7 -8 0
-12 -16z"/>
<path d="M4071 2768 c0 -9 -4 -25 -7 -35 -5 -17 -5 -17 6 0 6 10 9 25 7 35 -4
15 -5 15 -6 0z"/>
<path d="M4405 2758 c4 -11 2 -18 -4 -18 -6 0 -11 -5 -11 -11 0 -8 5 -8 15 1
18 15 20 0 3 -20 -11 -12 -10 -12 7 0 11 8 22 15 24 17 1 1 -7 12 -19 25 -15
16 -19 18 -15 6z"/>
<path d="M4430 2759 c0 -5 5 -7 10 -4 6 3 10 8 10 11 0 2 -4 4 -10 4 -5 0 -10
-5 -10 -11z"/>
<path d="M4454 2730 c0 -13 4 -16 10 -10 7 7 7 13 0 20 -6 6 -10 3 -10 -10z"/>
<path d="M4110 2708 c0 -18 -11 -23 -24 -11 -15 16 -32 9 -34 -14 -1 -14 2
-21 8 -18 6 3 10 14 10 23 1 15 2 15 11 -1 9 -15 7 -21 -8 -32 -10 -8 -14 -17
-9 -22 5 -4 11 -2 13 5 3 6 9 10 14 6 5 -3 9 2 9 11 0 10 5 13 13 9 6 -4 9 -4
5 1 -4 4 -4 13 2 19 5 7 5 17 0 26 -8 13 -10 12 -10 -2z"/>
<path d="M4415 2659 c-4 -6 -5 -12 -2 -15 2 -3 7 2 10 11 7 17 1 20 -8 4z"/>
<path d="M4341 2621 c-8 -5 -10 -14 -6 -22 6 -9 10 -8 16 7 6 16 8 16 8 2 1
-9 6 -20 13 -24 8 -5 9 -2 4 11 -4 11 -2 22 6 27 9 5 7 8 -7 8 -11 0 -26 -4
-34 -9z"/>
<path d="M4325 2551 c0 -26 4 -37 11 -34 9 3 10 14 3 35 -12 43 -14 43 -14 -1z"/>
<path d="M4354 2560 c0 -13 4 -16 10 -10 7 7 7 13 0 20 -6 6 -10 3 -10 -10z"/>
<path d="M4017 2540 c-4 -18 -15 -39 -25 -46 -10 -8 -12 -13 -5 -14 9 0 8 -10
-4 -35 -9 -19 -20 -31 -23 -25 -3 5 -13 -6 -22 -26 -10 -22 -12 -34 -5 -31 7
2 13 13 15 25 2 12 8 20 13 17 5 -4 14 5 21 19 6 14 16 26 21 26 5 0 7 9 4 20
-3 11 -1 17 4 14 5 -3 15 1 22 8 10 10 10 21 1 47 l-11 34 -6 -33z m5 -42 c-8
-8 -9 -4 -5 13 4 13 8 18 11 10 2 -7 -1 -18 -6 -23z"/>
<path d="M4257 2465 c10 -13 22 -25 26 -25 4 0 0 11 -10 25 -10 13 -22 25 -26
25 -4 0 0 -11 10 -25z"/>
<path d="M4030 2459 c0 -9 -7 -20 -16 -23 -8 -3 -12 -11 -8 -17 5 -9 11 -7 20
5 7 10 17 15 23 12 5 -4 13 -1 17 5 4 7 3 9 -4 5 -6 -3 -15 2 -21 11 -9 16
-10 16 -11 2z"/>
<path d="M4228 2419 c-20 -26 -24 -28 -34 -14 -10 13 -11 11 -10 -14 1 -16 5
-33 9 -37 14 -14 7 -26 -8 -14 -12 10 -19 10 -27 2 -9 -9 -7 -12 10 -12 25 0
28 -10 10 -28 -7 -7 -9 -12 -6 -12 3 0 18 16 33 36 22 28 25 38 15 47 -10 10
-11 8 -6 -8 6 -16 5 -18 -5 -7 -21 20 5 40 27 21 16 -13 16 -12 4 8 -12 19
-12 24 4 42 11 12 16 21 13 21 -4 0 -17 -14 -29 -31z"/>
<path d="M3930 2346 c0 -2 7 -9 15 -16 9 -7 15 -8 15 -2 0 5 -7 12 -15 16 -8
3 -15 4 -15 2z"/>
<path d="M3910 2331 c0 -10 19 -25 25 -20 1 2 -3 10 -11 17 -8 7 -14 8 -14 3z"/>
<path d="M3896 2295 c-4 -10 -2 -14 5 -9 6 4 15 1 19 -6 7 -11 11 -10 24 3 20
20 21 34 1 17 -11 -9 -18 -10 -29 -1 -11 9 -15 8 -20 -4z"/>
<path d="M4118 2266 c-22 -16 -23 -27 -3 -20 20 8 19 -6 -2 -23 -17 -13 -16
-14 2 -4 12 6 20 20 20 35 1 14 1 26 0 26 0 0 -8 -7 -17 -14z"/>
<path d="M3877 2263 c-4 -3 -7 -11 -7 -17 0 -6 5 -5 12 2 6 6 9 14 7 17 -3 3
-9 2 -12 -2z"/>
<path d="M3854 2203 c0 -10 -4 -17 -11 -16 -8 2 -10 -4 -6 -14 4 -11 3 -14 -5
-9 -8 5 -10 2 -6 -9 6 -14 8 -14 18 1 11 15 14 15 30 -2 18 -17 18 -17 10 6
-4 14 -8 33 -8 43 0 9 -6 17 -12 17 -6 0 -11 -8 -10 -17z"/>
<path d="M4053 2195 c4 -8 2 -17 -3 -20 -5 -3 -11 3 -13 12 -4 14 -2 -23 2
-46 1 -3 5 -1 10 5 14 14 21 64 9 64 -5 0 -8 -7 -5 -15z"/>
<path d="M3855 2140 c3 -5 8 -10 11 -10 2 0 4 5 4 10 0 6 -5 10 -11 10 -5 0
-7 -4 -4 -10z"/>
<path d="M3936 2127 c3 -10 9 -15 12 -12 3 3 0 11 -7 18 -10 9 -11 8 -5 -6z"/>
<path d="M3966 2123 c-6 -14 -5 -15 5 -6 7 7 10 15 7 18 -3 3 -9 -2 -12 -12z"/>
<path d="M3990 2130 c0 -6 7 -13 15 -16 13 -5 13 -9 3 -23 -10 -13 -10 -14 2
-4 7 7 15 23 17 35 2 18 1 20 -7 8 -6 -10 -10 -11 -10 -2 0 6 -4 12 -10 12 -5
0 -10 -5 -10 -10z"/>
<path d="M3786 2104 c-3 -9 -4 -19 -1 -22 3 -3 5 1 5 9 0 11 2 11 10 -1 5 -8
10 -10 10 -5 0 6 -4 16 -9 23 -6 11 -10 10 -15 -4z"/>
<path d="M3971 2096 c-6 -7 -9 -21 -5 -30 9 -23 -3 -20 -34 9 -15 14 -31 25
-37 24 -6 0 -5 -3 1 -5 6 -3 10 -18 8 -34 -2 -16 1 -32 6 -35 6 -4 7 1 3 11
-4 12 -3 15 5 10 8 -5 10 -1 6 11 -4 13 -1 12 13 -5 17 -20 21 -21 31 -9 7 8
9 23 5 32 -4 11 -2 16 4 12 5 -3 10 0 10 8 0 18 -2 18 -16 1z"/>
<path d="M3777 2053 c3 -17 -14 -26 -20 -11 -3 8 -6 6 -6 -4 -1 -10 5 -18 13
-18 8 0 16 -8 18 -17 3 -15 4 -15 21 1 19 20 22 36 6 36 -5 0 -7 -4 -4 -10 3
-5 2 -10 -2 -10 -5 0 -14 10 -19 23 -6 12 -9 17 -7 10z"/>
<path d="M3871 2013 c-12 -14 -12 -15 0 -11 8 3 23 1 34 -5 20 -10 20 -10 1
12 -11 11 -20 21 -20 21 -1 -1 -7 -8 -15 -17z"/>
<path d="M3930 2020 c0 -5 5 -10 11 -10 5 0 7 5 4 10 -3 6 -8 10 -11 10 -2 0
-4 -4 -4 -10z"/>
<path d="M3733 2001 c0 -11 5 -18 9 -15 4 3 5 11 1 19 -7 21 -12 19 -10 -4z"/>
<path d="M3815 1991 c-3 -5 0 -13 6 -17 7 -4 9 -3 5 4 -3 5 0 13 6 15 9 4 10
6 1 6 -6 1 -14 -3 -18 -8z"/>
<path d="M3842 1969 c-7 -11 -18 -17 -24 -13 -7 5 -8 3 -3 -5 6 -10 13 -8 28
8 12 11 19 23 16 25 -3 3 -10 -4 -17 -15z"/>
<path d="M3860 1957 c-14 -17 -29 -40 -33 -51 -8 -20 -9 -20 -23 6 -9 17 -20
25 -29 22 -18 -7 -20 -30 -3 -40 8 -5 9 -2 5 9 -3 9 -2 19 2 22 14 8 19 -18
10 -43 -8 -21 -10 -22 -25 -8 -18 18 -28 21 -19 5 4 -6 0 -16 -9 -22 -15 -11
-15 -14 -1 -32 9 -11 14 -14 10 -7 -6 11 19 46 29 40 9 -6 66 43 66 58 0 9 5
12 12 8 6 -4 8 -3 5 3 -8 13 17 36 28 25 5 -4 5 -2 2 5 -4 6 -2 13 5 15 7 3 8
7 3 10 -6 3 -21 -8 -35 -25z"/>
<path d="M3705 1960 c3 -5 8 -10 11 -10 2 0 4 5 4 10 0 6 -5 10 -11 10 -5 0
-7 -4 -4 -10z"/>
<path d="M3645 1870 c-9 -17 -11 -30 -5 -30 5 0 10 -4 10 -10 0 -5 -6 -10 -14
-10 -7 0 -20 -8 -27 -17 -13 -16 -12 -17 4 -4 9 7 17 10 17 6 0 -4 8 -1 17 6
15 12 16 12 10 -4 -4 -10 -7 -20 -7 -23 0 -2 -6 -1 -14 2 -8 3 -17 1 -21 -5
-10 -17 -25 -13 -26 7 0 13 -2 14 -6 2 -4 -8 -12 -19 -19 -25 -20 -16 -21 -37
-1 -40 9 -2 17 1 17 6 0 5 -4 9 -10 9 -5 0 -10 5 -10 11 0 5 5 7 10 4 6 -3 10
0 10 7 0 11 2 11 9 0 6 -10 10 -10 21 3 7 8 17 15 23 15 5 0 3 -8 -6 -18 -15
-17 -15 -20 -1 -38 8 -10 13 -14 10 -8 -6 12 22 41 33 37 3 -2 6 3 6 10 1 6 6
11 12 10 6 -1 19 7 28 17 11 12 13 20 6 20 -6 0 -14 -7 -17 -15 -9 -22 -43 23
-36 48 5 20 6 19 24 -3 20 -24 32 -23 23 3 -4 8 -17 18 -31 21 -13 4 -24 11
-24 16 0 5 7 7 15 4 8 -4 15 -4 15 -1 0 3 -7 7 -15 11 -10 3 -20 -5 -30 -24z
m12 -22 c-3 -8 -6 -5 -6 6 -1 11 2 17 5 13 3 -3 4 -12 1 -19z m13 -63 c-6 -8
-8 -20 -4 -26 4 -7 3 -9 -4 -5 -6 3 -13 2 -17 -4 -3 -5 -10 -10 -16 -10 -5 0
0 9 11 20 11 11 20 25 20 30 0 6 5 10 11 10 8 0 8 -4 -1 -15z"/>
<path d="M3582 1711 c-10 -6 -10 -10 2 -20 11 -9 16 -9 22 0 5 8 3 9 -6 4 -10
-6 -12 -4 -7 8 7 19 7 20 -11 8z"/>
<path d="M3552 1690 c7 -11 17 -20 22 -20 5 0 1 9 -9 20 -10 11 -20 20 -22 20
-2 0 2 -9 9 -20z"/>
<path d="M3505 1680 c-10 -11 -14 -20 -9 -20 5 0 15 9 22 20 7 11 11 20 9 20
-2 0 -12 -9 -22 -20z"/>
<path d="M3466 1645 c-3 -9 -4 -21 -1 -25 7 -12 -30 -31 -41 -22 -5 4 -1 -2 9
-14 9 -11 14 -25 10 -29 -5 -5 0 -3 10 4 10 8 16 20 13 27 -5 13 27 48 36 39
2 -3 5 2 5 10 0 8 -5 11 -10 8 -5 -3 -13 0 -17 7 -5 8 -9 7 -14 -5z m-6 -65
c0 -5 -2 -10 -4 -10 -3 0 -8 5 -11 10 -3 6 -1 10 4 10 6 0 11 -4 11 -10z"/>
<path d="M3399 1563 c-12 -16 -12 -17 2 -6 9 7 20 9 24 5 5 -4 5 -1 1 6 -9 16
-11 15 -27 -5z"/>
<path d="M3379 1538 c10 -13 10 -18 2 -18 -7 0 -10 -4 -6 -10 3 -5 17 0 30 12
25 22 27 40 2 20 -10 -9 -17 -8 -27 1 -12 10 -12 9 -1 -5z"/>
<path d="M3356 1483 c-6 -14 -5 -15 5 -6 7 7 10 15 7 18 -3 3 -9 -2 -12 -12z"/>
<path d="M3189 1353 c-13 -16 -12 -17 4 -4 9 7 17 15 17 17 0 8 -8 3 -21 -13z"/>
<path d="M7290 1219 c-75 -23 -120 -77 -120 -143 0 -54 39 -92 120 -116 81
-24 102 -43 76 -68 -22 -22 -119 -21 -163 2 -18 9 -36 16 -41 16 -4 0 -18 -20
-29 -44 l-22 -44 27 -11 c98 -38 199 -39 279 0 34 16 50 32 64 63 24 52 24 73
-1 113 -16 27 -32 36 -96 56 -87 26 -109 46 -81 74 23 23 110 23 153 0 l31
-16 16 35 c23 47 21 59 -10 73 -38 17 -160 23 -203 10z"/>
<path d="M9824 1212 c-111 -39 -174 -128 -174 -243 0 -151 184 -237 344 -160
41 21 43 23 55 89 7 37 15 77 18 90 5 21 2 22 -50 22 l-55 0 -7 -47 c-4 -27
-11 -56 -16 -65 -13 -25 -85 -24 -126 2 -79 48 -37 201 63 226 40 10 105 -3
127 -25 l20 -20 44 36 c35 29 41 38 31 50 -44 53 -186 77 -274 45z"/>
<path d="M3946 1209 c-3 -8 -21 -97 -41 -199 -20 -102 -39 -193 -41 -202 -5
-16 2 -18 54 -18 66 0 66 0 77 74 l7 46 77 0 c138 0 221 63 221 168 0 55 -22
97 -63 119 -43 23 -284 33 -291 12z m212 -95 c29 -20 29 -67 0 -94 -17 -15
-35 -20 -79 -20 l-57 0 9 43 c20 93 16 87 62 87 23 0 53 -7 65 -16z"/>
<path d="M4396 1209 c-3 -8 -21 -97 -41 -199 -20 -102 -39 -193 -41 -202 -5
-16 2 -18 55 -18 58 0 61 1 67 28 20 89 19 87 50 90 28 3 33 -2 63 -57 l32
-61 60 0 c32 0 59 3 59 7 0 3 -13 30 -30 60 -16 29 -30 56 -30 60 0 5 18 18
39 30 91 52 97 203 8 250 -43 23 -284 33 -291 12z m212 -95 c29 -20 29 -67 0
-94 -17 -15 -35 -20 -79 -20 l-57 0 9 43 c20 93 16 87 62 87 23 0 53 -7 65
-16z"/>
<path d="M4895 1064 c-55 -86 -117 -183 -138 -215 l-37 -59 64 0 65 0 22 40
23 40 93 0 c66 0 95 -4 97 -12 3 -7 7 -25 10 -40 6 -27 9 -28 67 -28 45 0 60
3 56 13 -2 6 -26 103 -53 215 l-49 202 -60 0 -60 0 -100 -156z m162 -100 c-3
-3 -28 -4 -56 -2 l-51 3 42 70 42 70 14 -68 c7 -38 11 -71 9 -73z"/>
<path d="M5277 1213 c-2 -5 -7 -25 -11 -45 l-7 -38 66 0 67 0 -6 -27 c-3 -16
-19 -92 -35 -171 l-28 -143 60 3 61 3 23 115 c13 63 28 139 34 168 l10 52 64
0 c35 0 66 3 68 8 2 4 7 24 11 45 l7 37 -190 0 c-104 0 -192 -3 -194 -7z"/>
<path d="M5715 1208 c-2 -7 -20 -96 -40 -198 -20 -102 -39 -193 -41 -202 -5
-16 2 -18 54 -18 68 0 64 -4 82 98 l13 72 84 0 c94 0 89 6 68 -90 -8 -36 -14
-68 -15 -72 0 -5 27 -8 60 -8 33 0 60 1 60 3 0 2 18 93 40 202 22 109 40 205
40 212 0 9 -17 13 -58 13 l-59 0 -14 -77 -14 -78 -82 -3 c-95 -3 -91 -9 -69
96 l14 62 -60 0 c-38 0 -60 -4 -63 -12z"/>
<path d="M6205 1208 c-2 -7 -20 -96 -40 -198 -20 -102 -39 -193 -41 -202 -5
-16 2 -18 50 -18 49 0 56 3 61 23 3 12 14 63 24 112 l18 90 17 -38 c65 -148
64 -147 89 -147 18 0 40 21 92 86 37 47 69 83 72 80 4 -4 -21 -144 -33 -188
-5 -16 2 -18 50 -18 49 0 56 3 61 23 3 12 23 109 44 215 l38 192 -52 0 -52 0
-98 -126 -98 -126 -51 126 -51 126 -48 0 c-29 0 -49 -5 -52 -12z"/>
<path d="M6795 1208 c-2 -7 -20 -96 -40 -198 -20 -102 -39 -193 -41 -202 -5
-17 8 -18 170 -18 143 0 176 3 176 14 0 7 3 28 6 45 l7 31 -113 0 -112 0 6 31
c3 17 6 35 6 40 0 5 45 9 100 9 78 0 100 3 100 14 0 7 3 27 6 44 l6 31 -93 3
-94 3 4 30 c1 17 5 33 8 38 2 4 53 7 114 7 86 0 109 3 109 14 0 7 3 28 6 45
l7 31 -167 0 c-124 0 -168 -3 -171 -12z"/>
<path d="M7615 1208 c-2 -7 -20 -96 -40 -198 -20 -102 -39 -193 -41 -202 -5
-16 2 -18 54 -18 68 0 64 -4 82 98 l13 72 84 0 c94 0 89 6 68 -90 -8 -36 -14
-68 -15 -72 0 -5 27 -8 60 -8 33 0 60 1 60 3 0 2 18 93 40 202 22 109 40 205
40 212 0 9 -17 13 -58 13 l-59 0 -14 -77 -14 -78 -82 -3 c-95 -3 -91 -9 -69
96 l14 62 -60 0 c-38 0 -60 -4 -63 -12z"/>
<path d="M8325 1064 c-55 -86 -117 -183 -138 -215 l-37 -59 64 0 65 0 22 40
23 40 93 0 c66 0 95 -4 97 -12 3 -7 7 -25 10 -40 6 -27 9 -28 67 -28 45 0 60
3 56 13 -2 6 -26 103 -53 215 l-49 202 -60 0 -60 0 -100 -156z m162 -100 c-3
-3 -28 -4 -56 -2 l-51 3 42 70 42 70 14 -68 c7 -38 11 -71 9 -73z"/>
<path d="M8776 1209 c-3 -8 -21 -97 -41 -199 -20 -102 -39 -193 -41 -202 -5
-16 2 -18 55 -18 58 0 61 1 67 28 20 89 19 87 50 90 28 3 33 -2 63 -57 l32
-61 60 0 c32 0 59 3 59 7 0 3 -13 30 -30 60 -16 29 -30 56 -30 60 0 5 18 18
39 30 91 52 97 203 8 250 -43 23 -284 33 -291 12z m212 -95 c29 -20 29 -67 0
-94 -17 -15 -35 -20 -79 -20 l-57 0 9 43 c20 93 16 87 62 87 23 0 53 -7 65
-16z"/>
<path d="M9275 1064 c-55 -86 -117 -183 -138 -215 l-37 -59 64 0 65 0 22 40
23 40 93 0 c66 0 95 -4 97 -12 3 -7 7 -25 10 -40 6 -27 9 -28 67 -28 45 0 60
3 56 13 -2 6 -26 103 -53 215 l-49 202 -60 0 -60 0 -100 -156z m162 -100 c-3
-3 -28 -4 -56 -2 l-51 3 42 70 42 70 14 -68 c7 -38 11 -71 9 -73z"/>
<path d="M10195 1208 c-2 -7 -20 -96 -40 -198 -20 -102 -39 -193 -41 -202 -5
-17 8 -18 170 -18 143 0 176 3 176 14 0 7 3 28 6 45 l7 31 -113 0 -112 0 6 31
c3 17 6 35 6 40 0 5 45 9 100 9 78 0 100 3 100 14 0 7 3 28 6 45 l7 31 -97 0
-96 0 6 28 c3 15 7 33 10 40 2 9 34 12 114 12 87 0 110 3 110 14 0 7 3 28 6
45 l7 31 -167 0 c-124 0 -168 -3 -171 -12z"/>
</g>
</svg>
